<svg width="53" height="53" viewBox="0 0 53 53" fill="none" xmlns="http://www.w3.org/2000/svg">
<path d="M23.0387 10.8879C24.1118 7.51237 28.8882 7.51238 29.9613 10.8879C30.6433 13.0332 33.0927 14.0478 35.092 13.0131C38.2376 11.385 41.615 14.7624 39.9869 17.908C38.9522 19.9073 39.9668 22.3567 42.1121 23.0387C45.4876 24.1118 45.4876 28.8882 42.1121 29.9613C39.9668 30.6433 38.9522 33.0927 39.9869 35.092C41.615 38.2376 38.2376 41.615 35.092 39.9869C33.0927 38.9522 30.6433 39.9668 29.9613 42.1121C28.8882 45.4876 24.1118 45.4876 23.0387 42.1121C22.3567 39.9668 19.9073 38.9522 17.908 39.9869C14.7624 41.615 11.385 38.2376 13.0131 35.092C14.0478 33.0927 13.0332 30.6433 10.8879 29.9613C7.51237 28.8882 7.51238 24.1118 10.8879 23.0387C13.0332 22.3567 14.0478 19.9073 13.0131 17.908C11.385 14.7624 14.7624 11.385 17.908 13.0131C19.9073 14.0478 22.3567 13.0332 23.0387 10.8879Z" fill="#FFC502"/>
<circle cx="21.5" cy="21.5" r="1.5" fill="black"/>
<circle cx="31.5" cy="31.5" r="1.5" fill="black"/>
<rect x="31.1924" y="20" width="2.25494" height="15.5469" rx="1.12747" transform="rotate(45 31.1924 20)" fill="black"/>
</svg>
